<svg width="44" height="44" viewBox="180 105 290 420" xmlns="http://www.w3.org/2000/svg">
  <path d="M340 120 C258 120 196 180 196 258 L196 488 C196 488 196 505 210 505 C222 505 228 495 234 485 C240 475 247 465 260 465 C273 465 280 475 286 485 C292 495 299 508 315 508 C331 508 338 495 344 485 C350 475 357 465 370 465 C383 465 390 475 396 485 C402 495 409 505 422 505 C436 505 436 488 436 488 L436 258 C436 180 422 120 340 120Z" fill="black"/>
  <ellipse cx="296" cy="295" rx="24" ry="27" fill="white"/>
  <ellipse cx="384" cy="295" rx="24" ry="27" fill="white"/>
</svg>
