<svg width="1024" height="1024" viewBox="0 0 680 680" xmlns="http://www.w3.org/2000/svg">
  <defs>
    <linearGradient id="bg" x1="0%" y1="0%" x2="100%" y2="100%">
      <stop offset="0%" stop-color="#1a1040"/>
      <stop offset="100%" stop-color="#060414"/>
    </linearGradient>
    <linearGradient id="ghostGrad" x1="20%" y1="0%" x2="80%" y2="100%">
      <stop offset="0%" stop-color="#ffffff"/>
      <stop offset="100%" stop-color="#c4b5fd"/>
    </linearGradient>
    <linearGradient id="eyeL" x1="0%" y1="0%" x2="100%" y2="100%">
      <stop offset="0%" stop-color="#1e293b"/>
      <stop offset="100%" stop-color="#4f46e5"/>
    </linearGradient>
    <linearGradient id="eyeR" x1="0%" y1="0%" x2="100%" y2="100%">
      <stop offset="0%" stop-color="#1e293b"/>
      <stop offset="100%" stop-color="#06b6d4"/>
    </linearGradient>
    <linearGradient id="rim" x1="0%" y1="0%" x2="100%" y2="100%">
      <stop offset="0%" stop-color="#7c5fff" stop-opacity="0.8"/>
      <stop offset="100%" stop-color="#06b6d4" stop-opacity="0.3"/>
    </linearGradient>
    <radialGradient id="glow" cx="50%" cy="45%" r="50%">
      <stop offset="0%" stop-color="#7c5fff" stop-opacity="0.2"/>
      <stop offset="100%" stop-color="#7c5fff" stop-opacity="0"/>
    </radialGradient>
    <radialGradient id="shine" cx="35%" cy="25%" r="45%">
      <stop offset="0%" stop-color="#ffffff" stop-opacity="0.08"/>
      <stop offset="100%" stop-color="#ffffff" stop-opacity="0"/>
    </radialGradient>
    <filter id="ghostGlow">
      <feGaussianBlur stdDeviation="10" result="blur"/>
      <feMerge><feMergeNode in="blur"/><feMergeNode in="SourceGraphic"/></feMerge>
    </filter>
    <clipPath id="clipA">
      <rect x="40" y="40" width="600" height="600" rx="132"/>
    </clipPath>
  </defs>
  <rect x="40" y="40" width="600" height="600" rx="132" fill="url(#bg)"/>
  <rect x="40" y="40" width="600" height="600" rx="132" fill="url(#shine)"/>
  <g clip-path="url(#clipA)">
    <ellipse cx="340" cy="320" rx="220" ry="200" fill="url(#glow)">
      <animate attributeName="ry" values="200;240;200" dur="4s" repeatCount="indefinite"/>
      <animate attributeName="opacity" values="1;0.5;1" dur="4s" repeatCount="indefinite"/>
    </ellipse>
    <g filter="url(#ghostGlow)" opacity="0.3">
      <path d="M340 118 C250 118 178 188 178 276 L178 480 C178 480 178 500 196 500 C210 500 218 488 226 476 C234 464 242 452 256 452 C270 452 278 464 286 476 C294 488 302 502 320 502 C338 502 346 488 354 476 C362 464 370 452 384 452 C398 452 406 464 414 476 C422 488 430 500 444 500 C462 500 462 480 462 480 L462 276 C462 188 430 118 340 118Z" fill="#a78bfa"/>
    </g>
    <g>
      <animateTransform attributeName="transform" type="translate" values="0,0; 0,-12; 0,0" dur="3s" repeatCount="indefinite" calcMode="spline" keySplines="0.45 0.05 0.55 0.95; 0.45 0.05 0.55 0.95"/>
      <path d="M340 118 C250 118 178 188 178 276 L178 480 C178 480 178 500 196 500 C210 500 218 488 226 476 C234 464 242 452 256 452 C270 452 278 464 286 476 C294 488 302 502 320 502 C338 502 346 488 354 476 C362 464 370 452 384 452 C398 452 406 464 414 476 C422 488 430 500 444 500 C462 500 462 480 462 480 L462 276 C462 188 430 118 340 118Z" fill="url(#ghostGrad)"/>
      <ellipse cx="296" cy="290" rx="30" ry="34" fill="url(#eyeL)">
        <animate attributeName="ry" values="34;34;34;3;34;34" dur="4s" begin="2s" repeatCount="indefinite" calcMode="spline" keySplines="0.4 0 0.6 1;0.4 0 0.6 1;0.4 0 0.6 1;0.4 0 0.6 1;0.4 0 0.6 1"/>
      </ellipse>
      <ellipse cx="287" cy="280" rx="9" ry="10" fill="white" opacity="0.45">
        <animate attributeName="ry" values="10;10;10;0;10;10" dur="4s" begin="2s" repeatCount="indefinite" calcMode="spline" keySplines="0.4 0 0.6 1;0.4 0 0.6 1;0.4 0 0.6 1;0.4 0 0.6 1;0.4 0 0.6 1"/>
        <animate attributeName="opacity" values="0.45;0.45;0.45;0;0.45;0.45" dur="4s" begin="2s" repeatCount="indefinite"/>
      </ellipse>
      <ellipse cx="384" cy="290" rx="30" ry="34" fill="url(#eyeR)">
        <animate attributeName="ry" values="34;34;34;3;34;34" dur="4s" begin="2s" repeatCount="indefinite" calcMode="spline" keySplines="0.4 0 0.6 1;0.4 0 0.6 1;0.4 0 0.6 1;0.4 0 0.6 1;0.4 0 0.6 1"/>
      </ellipse>
      <ellipse cx="375" cy="280" rx="9" ry="10" fill="white" opacity="0.45">
        <animate attributeName="ry" values="10;10;10;0;10;10" dur="4s" begin="2s" repeatCount="indefinite" calcMode="spline" keySplines="0.4 0 0.6 1;0.4 0 0.6 1;0.4 0 0.6 1;0.4 0 0.6 1;0.4 0 0.6 1"/>
        <animate attributeName="opacity" values="0.45;0.45;0.45;0;0.45;0.45" dur="4s" begin="2s" repeatCount="indefinite"/>
      </ellipse>
    </g>
    <circle cx="160" cy="210" r="3" fill="#a78bfa" opacity="0">
      <animate attributeName="opacity" values="0;0.7;0" dur="2.5s" begin="0.5s" repeatCount="indefinite"/>
      <animate attributeName="cy" values="210;193;210" dur="2.5s" begin="0.5s" repeatCount="indefinite"/>
    </circle>
    <circle cx="522" cy="228" r="4" fill="#67e8f9" opacity="0">
      <animate attributeName="opacity" values="0;0.8;0" dur="3s" begin="1s" repeatCount="indefinite"/>
      <animate attributeName="cy" values="228;210;228" dur="3s" begin="1s" repeatCount="indefinite"/>
    </circle>
    <circle cx="148" cy="355" r="2.5" fill="#c4b5fd" opacity="0">
      <animate attributeName="opacity" values="0;0.6;0" dur="2s" begin="1.8s" repeatCount="indefinite"/>
      <animate attributeName="cx" values="148;134;148" dur="2s" begin="1.8s" repeatCount="indefinite"/>
    </circle>
    <circle cx="534" cy="385" r="3" fill="#67e8f9" opacity="0">
      <animate attributeName="opacity" values="0;0.7;0" dur="2.8s" begin="0.8s" repeatCount="indefinite"/>
      <animate attributeName="cx" values="534;548;534" dur="2.8s" begin="0.8s" repeatCount="indefinite"/>
    </circle>
  </g>
  <rect x="40" y="40" width="600" height="600" rx="132" fill="none" stroke="url(#rim)" stroke-width="1.5">
    <animate attributeName="opacity" values="0.4;1;0.4" dur="4s" repeatCount="indefinite"/>
  </rect>
</svg>
