<svg width="1024" height="1024" viewBox="0 0 680 680" xmlns="http://www.w3.org/2000/svg">
  <defs>
    <linearGradient id="bg" x1="0%" y1="0%" x2="100%" y2="100%">
      <stop offset="0%" stop-color="#f8fafc"/>
      <stop offset="100%" stop-color="#e2e8f0"/>
    </linearGradient>
    <linearGradient id="bl" x1="0%" y1="0%" x2="0%" y2="100%">
      <stop offset="0%" stop-color="#1e293b"/>
      <stop offset="100%" stop-color="#6366f1"/>
    </linearGradient>
    <linearGradient id="br" x1="0%" y1="0%" x2="0%" y2="100%">
      <stop offset="0%" stop-color="#1e293b"/>
      <stop offset="100%" stop-color="#06b6d4"/>
    </linearGradient>
    <linearGradient id="sl" x1="0%" y1="0%" x2="0%" y2="100%">
      <stop offset="0%" stop-color="#1e293b"/>
      <stop offset="50%" stop-color="#6366f1"/>
      <stop offset="100%" stop-color="#06b6d4"/>
    </linearGradient>
    <linearGradient id="rim" x1="0%" y1="0%" x2="100%" y2="100%">
      <stop offset="0%" stop-color="#6366f1" stop-opacity="0.4"/>
      <stop offset="100%" stop-color="#06b6d4" stop-opacity="0.2"/>
    </linearGradient>
    <linearGradient id="topShine" x1="0%" y1="0%" x2="60%" y2="100%">
      <stop offset="0%" stop-color="#ffffff" stop-opacity="0.8"/>
      <stop offset="100%" stop-color="#ffffff" stop-opacity="0"/>
    </linearGradient>
    <clipPath id="clip">
      <rect x="40" y="40" width="600" height="600" rx="132"/>
    </clipPath>
  </defs>
  <rect x="40" y="40" width="600" height="600" rx="132" fill="url(#bg)"/>
  <rect x="40" y="40" width="600" height="600" rx="132" fill="url(#topShine)"/>
  <g clip-path="url(#clip)">
    <path d="M224 155 L148 340 L224 525" fill="none" stroke="url(#bl)" stroke-width="52" stroke-linecap="round" stroke-linejoin="round"/>
    <path d="M456 155 L532 340 L456 525" fill="none" stroke="url(#br)" stroke-width="52" stroke-linecap="round" stroke-linejoin="round"/>
    <line x1="372" y1="165" x2="308" y2="515" stroke="url(#sl)" stroke-width="52" stroke-linecap="round"/>
  </g>
  <rect x="40" y="40" width="600" height="600" rx="132" fill="none" stroke="url(#rim)" stroke-width="1.5"/>
</svg>
